<svg width="58" height="57" viewBox="0 0 58 57" fill="none" xmlns="http://www.w3.org/2000/svg">
<g filter="url(#filter0_d_204_6231)">
<path fill-rule="evenodd" clip-rule="evenodd" d="M32.8318 5.27898C32.8318 5.96874 32.288 6.51067 31.5956 6.51067C30.9033 6.51067 30.3591 5.96877 30.3591 5.27932V1.73169C30.3591 1.04193 30.9033 0.499664 31.5956 0.5C32.2879 0.5 32.8318 1.04191 32.8318 1.73169V5.27898ZM37.2336 11.2065C40.8435 11.2065 43.7118 13.7193 44.5028 17.661L44.5024 17.6611C45.5901 23.031 42.3268 30.2742 32.6838 34.265C32.387 34.3637 32.1395 34.4128 31.8924 34.4128C31.6453 34.4128 31.3979 34.3637 31.1508 34.265C21.4589 30.4221 18.1951 23.1793 19.2335 17.7102C19.9752 13.7686 22.8435 11.2065 26.5028 11.2065C28.2335 11.2065 30.1127 11.7975 31.8928 12.9801C33.6729 11.7976 35.5028 11.2065 37.2336 11.2065ZM21.6064 18.1042C20.7661 22.5878 23.5847 28.5001 31.8431 31.8507L31.8426 31.8511C40.1011 28.4513 42.9197 22.4895 42.0793 18.1046C41.5354 15.3455 39.7055 13.6211 37.2331 13.6211C35.7992 13.6211 34.1671 14.2121 32.5847 15.3947C32.1395 15.7395 31.5462 15.7395 31.101 15.3947C29.5186 14.2121 27.8865 13.5715 26.4526 13.5715C23.9802 13.5715 22.1503 15.2959 21.6064 18.1042ZM43.0878 11.186C43.2532 11.3323 43.4314 11.4308 43.6225 11.4818C44.0525 11.5966 44.4985 11.4608 44.8396 11.1435L47.624 8.21409C48.1119 7.7324 48.0652 6.95455 47.5814 6.46834C47.098 5.98221 46.3173 6.02868 45.8293 6.5107L43.0449 9.44013C42.605 9.93464 42.5916 10.7473 43.0878 11.186ZM19.8757 11.4818C20.0667 11.4308 20.245 11.3323 20.4104 11.186C20.9066 10.7473 20.8932 9.93464 20.4533 9.44013L17.6689 6.5107C17.1809 6.02869 16.4002 5.98221 15.9167 6.46834C15.433 6.95455 15.3863 7.7324 15.8742 8.21409L18.6586 11.1435C18.9997 11.4608 19.4457 11.5966 19.8757 11.4818ZM15.4486 22.9874C15.9147 22.9712 16.3269 22.7529 16.5493 22.3691C16.6482 22.1985 16.7043 22.0033 16.7174 21.7833C16.7143 21.0989 16.1957 20.516 15.5085 20.5189L11.4607 20.4091C10.7738 20.4123 10.1887 20.9289 10.1917 21.6136C10.1948 22.298 10.7134 22.8809 11.4006 22.878L15.4486 22.9874ZM46.8922 22.3691C47.1147 22.7529 47.5269 22.9712 47.9929 22.9874L52.041 22.878C52.7282 22.8809 53.2467 22.298 53.2499 21.6136C53.2528 20.9289 52.6677 20.4123 51.9809 20.4091L47.933 20.5189C47.2458 20.516 46.7273 21.0989 46.7241 21.7833C46.7372 22.0033 46.7934 22.1985 46.8922 22.3691Z" fill="#6558F5"/>
<path d="M5.97709 47.0879H11.1004C11.502 47.0879 11.8276 46.7636 11.8276 46.3635V44.9634H14.0262C14.2858 44.9627 14.5427 45.0186 14.7786 45.1271C14.8226 45.1479 14.8686 45.1641 14.9159 45.1752L28.5734 48.3577C29.8722 48.6602 31.2372 48.4773 32.4095 47.8434L46.9653 39.9729C47.3091 39.7867 47.5646 39.4717 47.6759 39.0976C47.7871 38.7234 47.7448 38.3206 47.5582 37.9774C47.0106 36.9687 46.0928 36.2098 44.9965 35.8596C43.9002 35.509 42.7107 35.5945 41.6759 36.0977L35.6368 39.0249C35.4279 38.5274 35.0763 38.1024 34.626 37.8033C34.1758 37.5042 33.6468 37.3442 33.1056 37.3435H27.2098L25.5571 35.3557C24.328 33.8771 22.5532 32.9539 20.6328 32.7939C18.7127 32.6339 16.8086 33.251 15.3503 34.5059L14.8172 34.9649C14.4886 35.2472 14.0694 35.4028 13.6357 35.4028H11.8273V34.0027C11.8273 33.6026 11.5017 33.2786 11.1001 33.2786H5.97679C5.57519 33.2786 5.25 33.6026 5.25 34.0027V46.3636C5.25 46.5555 5.3264 46.7398 5.46296 46.8758C5.59919 47.0116 5.7841 47.088 5.97679 47.088L5.97709 47.0879ZM13.634 36.8516V36.8512C14.4169 36.8516 15.1738 36.571 15.7664 36.0614L16.2995 35.6024V35.602C17.4621 34.6014 18.9799 34.1093 20.5105 34.2366C22.0414 34.3636 23.4565 35.0995 24.4365 36.2783L26.3072 38.5286V38.5282C26.4455 38.6943 26.6506 38.7906 26.867 38.7906H33.1059C33.4524 38.7839 33.7871 38.9163 34.0345 39.1581C34.2819 39.3999 34.4215 39.7307 34.4215 40.0759C34.4215 40.4215 34.2819 40.7522 34.0345 40.994C33.787 41.2358 33.4524 41.3682 33.1059 41.3615H25.0128C24.6112 41.3615 24.286 41.6858 24.286 42.0859C24.286 42.4857 24.6112 42.8101 25.0128 42.8101H33.1059C33.7506 42.8091 34.3742 42.5821 34.8677 42.1691C35.3613 41.7559 35.6933 41.1829 35.8058 40.5505L42.3128 37.3977C43.0118 37.0555 43.8177 36.9999 44.5577 37.2424C45.2976 37.4849 45.9128 38.0066 46.2719 38.6954L31.7161 46.5659C30.8575 47.0304 29.8572 47.1644 28.9056 46.9428L15.313 43.7775C14.9066 43.603 14.4685 43.5131 14.026 43.5137H11.8274V36.8534L13.634 36.8516ZM6.70419 34.727H10.3736V45.6393H6.70419V34.727Z" fill="#6558F5" stroke="#6558F5"/>
</g>
<defs>
<filter id="filter0_d_204_6231" x="0.75" y="0.5" width="56.5" height="56.5" filterUnits="userSpaceOnUse" color-interpolation-filters="sRGB">
<feFlood flood-opacity="0" result="BackgroundImageFix"/>
<feColorMatrix in="SourceAlpha" type="matrix" values="0 0 0 0 0 0 0 0 0 0 0 0 0 0 0 0 0 0 127 0" result="hardAlpha"/>
<feOffset dy="4"/>
<feGaussianBlur stdDeviation="2"/>
<feComposite in2="hardAlpha" operator="out"/>
<feColorMatrix type="matrix" values="0 0 0 0 0 0 0 0 0 0 0 0 0 0 0 0 0 0 0.25 0"/>
<feBlend mode="normal" in2="BackgroundImageFix" result="effect1_dropShadow_204_6231"/>
<feBlend mode="normal" in="SourceGraphic" in2="effect1_dropShadow_204_6231" result="shape"/>
</filter>
</defs>
</svg>
