<svg width="14" height="12" viewBox="0 0 14 12" fill="none" xmlns="http://www.w3.org/2000/svg">
<path fill-rule="evenodd" clip-rule="evenodd" d="M3.81208 6C3.81208 3.51472 5.82685 1.5 8.3122 1.5C10.7975 1.5 12.8123 3.51472 12.8123 6C12.8123 8.48528 10.7975 10.5 8.3122 10.5C8.03605 10.5 7.81219 10.7239 7.81219 11C7.81219 11.2761 8.03605 11.5 8.3122 11.5C11.3498 11.5 13.8123 9.03757 13.8123 6C13.8123 2.96243 11.3498 0.5 8.3122 0.5C5.27455 0.5 2.81205 2.96243 2.81205 6C2.81205 6.01241 2.8125 6.02471 2.81339 6.03689L1.54425 4.76778C1.34898 4.57252 1.03239 4.57252 0.837124 4.76778C0.641857 4.96304 0.641857 5.27963 0.837124 5.47489L2.9585 7.59621C3.15377 7.79147 3.47036 7.79147 3.66563 7.59621L5.787 5.47489C5.98227 5.27963 5.98227 4.96304 5.787 4.76778C5.59174 4.57252 5.27515 4.57252 5.07988 4.76778L3.81074 6.03689C3.81163 6.02471 3.81208 6.01241 3.81208 6ZM3.34895 6.49866C3.33677 6.49955 3.32447 6.5 3.31206 6.5C3.29966 6.5 3.28736 6.49955 3.27517 6.49866L3.31206 6.53555L3.34895 6.49866Z" fill="#212121"/>
</svg>
